<?xml version="1.0" encoding="utf-8"?>
<!-- Generator: Adobe Illustrator 25.2.1, SVG Export Plug-In . SVG Version: 6.00 Build 0)  -->
<svg version="1.1" id="artworks" xmlns="http://www.w3.org/2000/svg" xmlns:xlink="http://www.w3.org/1999/xlink" x="0px" y="0px"
	 viewBox="0 0 4000 4000" style="enable-background:new 0 0 4000 4000;" xml:space="preserve">
<style type="text/css">
	.st0{fill:#FFFFFF;}
	.st1{fill:#212121;}
	.st2{fill:#FF1744;}
</style>
<g>
	<rect id="bd_5_" class="st0" width="4000" height="4000"/>
	<circle class="st0" cx="2000" cy="2000" r="1550"/>
	<g>
		<path class="st1" d="M1675.62,2677.49c0,60.06-14.73,105.71-44.19,136.96c-29.46,31.25-72.59,46.88-129.39,46.88
			c-55.99,0-98.92-15.71-128.78-47.12c-29.87-31.41-44.8-77.15-44.8-137.21c0-59.41,14.85-104.77,44.56-136.11
			c29.7-31.33,72.88-47,129.52-47c56.8,0,99.85,15.54,129.15,46.63C1660.98,2571.61,1675.62,2617.27,1675.62,2677.49z
			 M1430.02,2677.49c0,69.01,24.01,103.52,72.02,103.52c24.41,0,42.52-8.38,54.32-25.15c11.8-16.76,17.7-42.88,17.7-78.37
			c0-35.64-5.98-61.97-17.94-78.98c-11.96-17.01-29.83-25.51-53.59-25.51C1454.19,2572.99,1430.02,2607.83,1430.02,2677.49z"/>
		<path class="st1" d="M2079.92,2856.44h-126.46l-130.37-251.47h-2.2c3.09,39.55,4.64,69.74,4.64,90.58v160.89h-85.45v-356.93
			h125.98l129.88,248.05h1.46c-2.28-35.97-3.42-64.86-3.42-86.67v-161.38h85.94V2856.44z"/>
		<path class="st1" d="M2157.07,2856.44v-356.93h96.44v279.05h137.45v77.88H2157.07z"/>
		<path class="st1" d="M2575.53,2631.83l61.52-132.32h104.49l-117.43,217.53v139.4h-97.17v-136.47l-117.43-220.46h104.98
			L2575.53,2631.83z"/>
	</g>
	<g>
		<path class="st2" d="M2000,350c-911.26,0-1650,738.74-1650,1650s738.74,1650,1650,1650s1650-738.74,1650-1650
			S2911.26,350,2000,350z M3036.63,2748.87l-2.69-2.69c-76.3,105.54-168.35,198.94-272.72,276.73l2.68,2.68
			c-213.13,159.03-477.53,253.16-763.9,253.16c-706.23,0-1278.75-572.52-1278.75-1278.75c0-287.41,94.83-552.68,254.89-766.21
			l2.67,2.68c78.02-104.19,171.63-196.02,277.35-272.09l-2.68-2.69c210.05-151.32,467.87-240.44,746.53-240.44
			c706.23,0,1278.75,572.52,1278.75,1278.75C3278.75,2279.67,3188.96,2538.4,3036.63,2748.87z"/>
	</g>
	<g>
		<path class="st1" d="M1065,1497.92l112.07,154.93l122.44-108.94c11.4-10.09,30.21-29.42,56.05-57.59l-2.66,89.49l-2.05,104.8
			l0,646.16h229.16V1207.91h-186.07L1065,1497.92z"/>
		<path class="st1" d="M2243.43,1736.2c57.26-33.58,99.84-71.83,126.69-113.84c28.86-45.14,43.5-97.24,43.5-154.86
			c0-41.68-7.6-79.68-22.58-112.96c-15.05-33.43-37.94-62.95-68.02-87.72c-29.97-24.68-65.15-43.45-104.58-55.77
			c-39.2-12.25-83.64-18.47-132.09-18.47c-48.25,0-92.62,6.31-131.89,18.77c-39.47,12.52-74.85,31.57-105.14,56.62
			c-30.39,25.13-53.52,54.58-68.74,87.54c-15.17,32.86-22.87,70.02-22.87,110.47c0,54.94,12.94,106.26,38.45,152.51
			c23.86,43.28,62.31,84.52,114.42,122.71c-61.89,36.33-107.94,78.51-137,125.48c-30.85,49.9-46.49,107.7-46.49,171.79
			c0,47.9,8.06,91.04,23.96,128.23c16.01,37.44,40.37,69.82,72.41,96.26c31.92,26.34,70.32,46.37,114.15,59.51
			c43.51,13.05,93.56,19.66,148.75,19.66c53.02,0,101.65-7.11,144.54-21.14c43.12-14.1,81.6-35.57,114.39-63.79
			c32.85-28.28,57.84-61.59,74.27-98.99c16.38-37.27,24.69-79.58,24.69-125.76c0-58.69-16.85-113.4-50.09-162.63
			C2362.96,1823.64,2312.29,1778.74,2243.43,1736.2z M2171.75,1562.88c-16.15,22.06-44.82,44.17-85.28,65.76
			c-41.9-23.47-71.24-46.47-87.25-68.39c-16.32-22.35-24.59-48.03-24.59-76.34c0-32.16,9.9-56.96,30.26-75.82
			c20.35-18.85,46.54-28.02,80.08-28.02c33.14,0,59.49,9.09,80.56,27.77c20.96,18.61,31.15,43.49,31.15,76.06
			C2196.69,1513.73,2188.3,1540.3,2171.75,1562.88z M2075.87,1847.84c54.02,31.49,93.63,61.49,117.79,89.19
			c24.15,27.69,36.39,57.69,36.39,89.17c0,38.21-12.17,69.29-36.18,92.39c-23.89,22.98-60.98,34.63-110.25,34.63
			c-44.47,0-79.82-11.35-105.08-33.75c-25.17-22.3-37.93-54.18-37.93-94.77C1940.61,1954.32,1986.11,1894.84,2075.87,1847.84z"/>
		<polygon class="st1" points="2834,1663.5 2834,1426.02 2684.36,1426.02 2684.36,1663.5 2453.36,1663.5 2453.36,1814.27 
			2684.36,1814.27 2684.36,2048.69 2834,2048.69 2834,1814.27 3065,1814.27 3065,1663.5 		"/>
	</g>
</g>
</svg>
